 http://www.imdb.com/title/tt1716753/

Eight classic monsters fight to the death in an explosive wrestling tournament set inside an abandoned and cursed graveyard. 

General
Complete name : Monster.Brawl.2011.DVDRip.XviD-OCW.avi
Format : AVI
Format/Info : Audio Video Interleave
File size : 701 MiB
Duration : 1h 28mn
Overall bit rate mode : Variable
Overall bit rate : 1 112 Kbps
Writing application : VirtualDubMod 1.5.4.1 (build 2178/release)
Writing library : VirtualDubMod build 2178/release

Video
ID : 0
Format : MPEG-4 Visual
Format profile : Advanced Simple@L5
Format settings, BVOP : 1
Format settings, QPel : No
Format settings, GMC : No warppoints
Format settings, Matrix : Custom
Codec ID : XVID
Codec ID/Hint : XviD
Duration : 1h 28mn
Bit rate : 988 Kbps
Width : 640 pixels
Height : 288 pixels
Display aspect ratio : 2.222
Frame rate : 23.976 fps
Color space : YUV
Chroma subsampling : 4:2:0
Bit depth : 8 bits
Scan type : Progressive
Compression mode : Lossy
Bits/(Pixel*Frame) : 0.224
Stream size : 623 MiB (89%)
Writing library : XviD 64

Audio
ID : 1
Format : MPEG Audio
Format version : Version 1
Format profile : Layer 3
Mode : Joint stereo
Mode extension : MS Stereo
Codec ID : 55
Codec ID/Hint : MP3
Duration : 1h 28mn
Bit rate mode : Variable
Bit rate : 111 Kbps
Nominal bit rate : 128 Kbps
Channel(s) : 2 channels
Sampling rate : 48.0 KHz
Compression mode : Lossy
Stream size : 70.0 MiB (10%)
Alignment : Aligned on interleaves
Interleave, duration : 24 ms (0.58 video frame)
Interleave, preload duration : 539 ms
Writing library : LAME3.98r
Encoding settings : -m j -V 4 -q 2 -lowpass 17 --abr 128
 
http://www2.picturepush.com/photo/a/7833185/img/Anonymous/qjwv1j1szpup8nujpyv7.png 
http://www3.picturepush.com/photo/a/7833151/img/Anonymous/dmt8gbbjlb73v5h9se.png 
http://www5.picturepush.com/photo/a/7833148/img/Anonymous/2w862ipb5mtg5ve8hm.png